# xmcd CD database file
#
# Track frame offsets:
#	150
#	21602
#	40724
#	57654
#	69503
#	102853
#	163498
#	182694
#	203682
#	219871
#	244027
#	277669
#	341087
#
# Disc length: 4747 seconds
#
# Revision: 2
# Processed by: cddbd v1.5.2PL0 Copyright (c) Steve Scherf et al.
# Submitted via: CDex 1.51
#
DISCID=bd12890d
DTITLE=Les Tresors Du Jazz - 1995 cd 54
DYEAR=1955
DGENRE=Jazz
TTITLE0=Brake's Sake
TTITLE1=Summertime
TTITLE2=That Old Devil Moon
TTITLE3=How High The Moon
TTITLE4=Little Melonae
TTITLE5=Opus De Funk
TTITLE6=Sophia
TTITLE7=Almost Like Being in Love
TTITLE8=Roamin's Showman
TTITLE9=Stablemates
TTITLE10=Juts Squeeze Me
TTITLE11=Soft Winds
TTITLE12=Drown in My Own Tears
EXTD=YEAR: 1955
EXTT0=
EXTT1=
EXTT2=
EXTT3=
EXTT4=
EXTT5=
EXTT6=
EXTT7=
EXTT8=
EXTT9=
EXTT10=
EXTT11=
EXTT12=
PLAYORDER=
